<?xml version="1.0" encoding="utf-8" ?>
<svg xmlns="http://www.w3.org/2000/svg" xmlns:xlink="http://www.w3.org/1999/xlink" width="2048" height="1024">
	<path fill="#DC1800" d="M1238.25 36.8987C1246.87 42.4257 1260.45 66.4778 1267.72 75.846C1271.85 81.1647 1291.94 102.654 1292.67 106.154C1292.73 106.452 1292.77 106.755 1292.82 107.055C1291.61 107.455 1290.09 107.132 1288.82 107.038C1257.22 120.436 1224.82 129.84 1190.24 130.402C1193.31 128.545 1195.21 125.836 1197.13 122.884C1204.52 111.522 1209.99 98.7745 1216.29 86.7909C1223.41 73.2625 1234.34 57.323 1238.34 42.5712C1238.7 41.2378 1238.74 40.0074 1238.56 38.6391C1238.53 38.4442 1238.51 38.2487 1238.48 38.054C1238.4 37.4512 1238.41 37.5654 1238.25 36.8987Z"/>
	<path fill="#DD4E29" d="M807.296 36.7517C811.05 53.2503 843.325 112.224 853.491 130.582Q845.139 129.915 836.837 128.784Q828.534 127.652 820.308 126.061Q812.082 124.469 803.957 122.422Q795.832 120.374 787.834 117.878C776.006 114.255 763.212 108.855 751.017 107.116C766.993 95.664 795.007 54.2562 807.296 36.7517Z"/>
	<path fill="#DD4E29" d="M1939.31 190.161C1956.62 184.081 1973.89 169.245 1987.79 157.25C1990.63 154.797 1998.92 145.28 2002.06 144.912C2008.78 153.982 2033.74 238.769 2032.43 248.452C2032.29 249.458 2031.99 250.468 2031.64 251.417C2026.48 246.174 1973.23 214.138 1967.81 213.96L1967.36 211.433C1961.82 203.13 1948.45 193.866 1939.31 190.161Z"/>
	<path fill="#DC1800" d="M749.535 109.514C753.528 118.61 756.163 128.587 759.211 138.043C767.025 162.285 773.888 187.198 782.899 211.006C747.014 202.115 716.578 184.799 686.1 164.577C708.562 150.8 732.01 129.08 749.535 109.514Z"/>
	<path fill="#DD4E29" d="M41.9751 143.341C62.5353 161.287 83.3153 178.571 106.475 193.12C97.3135 201.205 85.1836 214.125 73.1922 217.253C53.1955 229.033 33.315 241.757 12.5909 252.162C22.274 215.885 32.7186 179.71 41.9751 143.341Z"/>
	<path fill="#DD4E29" d="M1288.82 107.038C1290.09 107.132 1291.61 107.455 1292.82 107.055C1299.77 109.964 1308.05 120.337 1313.75 125.602C1322.45 133.628 1355.07 157.514 1359.26 163.922C1357.21 166.934 1351.67 169.596 1348.57 171.536C1324.24 186.775 1290.1 203.565 1261.89 209.264C1264.29 207.565 1265.3 205.437 1266.4 202.787C1271.36 190.825 1273.74 177.65 1277.17 165.19C1281.31 150.146 1286.33 135.133 1289.48 119.842C1290.45 115.125 1291.57 111.216 1288.82 107.038Z"/>
	<path fill="#DD4E29" d="M1345.89 239.179L1347 241.89L1350.03 241.629L1350.64 243.288C1340.94 263.934 1267.93 304.976 1245.17 314.128L1243.27 315.161C1217.84 326.477 1190.79 336.73 1163.65 343.063C1160.68 343.931 1157.81 344.694 1154.76 345.209C1126.95 355.207 1097.13 354.438 1068.75 360.968C1065.39 361.088 1061.85 361.008 1058.56 361.655C1039.05 367.291 999.043 363.516 977.91 362.692L972.326 361.875C942.505 360.62 911.093 354.889 882.231 347.43L877.665 346.515C848.727 341.683 820.954 328.376 794.213 316.72L785.241 312.607C761.334 300.431 738.995 286.373 717.101 270.905C711.053 264.164 702.559 258.484 695.48 252.817C694.368 248.802 693.096 245.215 691.236 241.484L728.436 251.695Q735.414 253.706 742.418 255.621Q749.422 257.537 756.452 259.357Q763.482 261.177 770.536 262.902Q777.59 264.626 784.666 266.255Q791.743 267.883 798.841 269.416Q805.939 270.948 813.057 272.384Q820.176 273.819 827.313 275.158Q834.45 276.497 841.604 277.739Q848.759 278.981 855.93 280.125Q863.101 281.269 870.286 282.316Q877.472 283.363 884.671 284.313Q891.871 285.262 899.082 286.113Q906.294 286.964 913.516 287.718Q920.739 288.471 927.971 289.126Q935.203 289.781 942.443 290.338Q949.683 290.895 956.93 291.353Q964.177 291.811 971.43 292.171Q978.683 292.531 985.939 292.792Q993.196 293.053 1000.46 293.216Q1007.72 293.379 1014.98 293.443Q1022.24 293.507 1029.5 293.472Q1036.76 293.438 1044.02 293.304Q1051.28 293.171 1058.54 292.939Q1065.8 292.707 1073.05 292.377Q1080.31 292.046 1087.56 291.617Q1094.8 291.188 1102.05 290.661Q1109.29 290.133 1116.52 289.507Q1123.76 288.882 1130.98 288.158Q1138.21 287.434 1145.42 286.611Q1152.64 285.789 1159.84 284.869Q1167.04 283.949 1174.23 282.931Q1181.42 281.913 1188.6 280.798C1216.75 276.446 1248.32 273.386 1274.85 262.978C1296.26 257.602 1318.24 252.464 1338.64 243.89C1339.75 243.613 1340.9 243.351 1341.97 242.937C1344.53 241.943 1344.91 241.582 1345.89 239.179Z"/>
	<path fill="#242424" d="M1274.85 262.978C1296.26 257.602 1318.24 252.464 1338.64 243.89C1337.72 250.693 1326.69 258.4 1321.44 262.416C1317.13 265.708 1312.42 269.679 1307.25 271.5C1296.43 269.745 1284.51 268.48 1274.85 262.978Z"/>
	<path fill="#242424" d="M1347 241.89L1350.03 241.629L1350.64 243.288C1340.94 263.934 1267.93 304.976 1245.17 314.128L1243.27 315.161C1217.84 326.477 1190.79 336.73 1163.65 343.063C1160.68 343.931 1157.81 344.694 1154.76 345.209C1126.95 355.207 1097.13 354.438 1068.75 360.968C1065.39 361.088 1061.85 361.008 1058.56 361.655C1039.05 367.291 999.043 363.516 977.91 362.692L972.326 361.875C942.505 360.62 911.093 354.889 882.231 347.43L877.665 346.515C848.727 341.683 820.954 328.376 794.213 316.72L785.241 312.607C761.334 300.431 738.995 286.373 717.101 270.905C711.053 264.164 702.559 258.484 695.48 252.817C694.368 248.802 693.096 245.215 691.236 241.484L728.436 251.695C722.602 255.864 715.487 257.734 708.724 259.807C783.063 319.095 872.754 350.291 966.932 358.732C1079.17 368.792 1200.84 342.788 1296.68 282.746C1310.1 274.339 1323.9 265.566 1336.04 255.368C1339.75 252.249 1346.57 246.837 1347 241.89Z"/>
	<path fill="#242424" d="M1793.3 90.4999C1829.57 88.8395 1868.78 99.6742 1899.15 119.508C1910.37 126.834 1950.06 160.335 1952.67 172.615C1951.87 173.832 1950.76 174.909 1949.61 175.798C1931.59 189.731 1909.03 199.581 1888.23 208.711C1794.25 249.963 1702.63 262.157 1601.14 249.841C1593.66 247.588 1584.51 247.203 1576.72 245.921C1559.25 243.046 1541.53 239.773 1524.48 234.985Q1500.67 228.375 1477.57 219.588C1464 214.317 1449.99 207.474 1435.85 204.06C1465.34 198.095 1493.71 184.313 1521.74 173.65Q1582.29 150.589 1643.51 129.384C1692.68 112.337 1741 94.5308 1793.3 90.4999Z"/>
	<path fill="#242424" d="M243.553 90.4575C270.09 88.9883 298.711 96.2157 324.285 103.02C388.869 120.202 451.547 145.295 513.871 169.25C545.524 181.417 576.961 194.551 609.65 203.704C592.293 209.387 575.506 217.69 558.293 223.969C524.276 236.378 489.717 244.181 454.005 249.708Q435.066 252.735 415.913 253.742C398.15 254.796 379.972 255.975 362.186 255.682C286.477 254.435 207.466 236.865 139.567 203.06C123.319 194.971 105.353 186.509 91.737 174.408C95.6431 167.948 100.356 161.709 105.208 155.935C128.596 128.107 164.048 106.028 199.243 97.0153C213.739 93.3032 228.68 91.7608 243.553 90.4575Z"/>
	<path fill="#242424" d="M1361.01 167.121C1361.49 166.758 1362.59 165.695 1363.1 165.55C1365.01 165.013 1389.27 181.2 1393.32 183.561C1466.61 226.371 1553.02 251.107 1637.6 255.87C1760.5 262.792 1890.61 233.463 1987.21 154.218C2000.54 143.283 2012.15 129.848 2023.36 116.81C2026.29 113.399 2028.03 108.886 2031.33 105.939L2031.97 107.135C2026.83 121.4 2010.6 131.699 2002.5 144.205L2002.06 144.912C1998.92 145.28 1990.63 154.797 1987.79 157.25C1973.89 169.245 1956.62 184.081 1939.31 190.161C1948.45 193.866 1961.82 203.13 1967.36 211.433L1967.81 213.96C1973.01 220.581 1975.22 242.338 1975.88 251.273C1978.24 283.48 1977.74 316.378 1977.73 348.672L1977.67 477.433L1977.79 556.76C1977.8 569.761 1978.98 584.147 1977.26 597.015Q1976.81 600.133 1975.97 603.168L1975.31 601.349C1964.57 600.282 1954.09 600.24 1943.38 598.466C1948.98 590.048 1950.59 543.297 1948.3 532.087C1945.72 519.51 1939.85 508.708 1928.92 501.531C1919.82 495.555 1908.43 491.959 1897.55 494.223C1886.67 496.485 1876.76 503.664 1870.89 513.026C1851.92 543.26 1868.38 605.205 1863.33 612.828C1854.6 617.462 1843.46 618.26 1834.23 622.081C1820.54 627.746 1810.75 637.704 1798.66 645.614C1797.09 632.359 1748.67 586.438 1737.97 578.012C1730.61 572.216 1722.45 565.833 1713.9 561.898C1698.42 571.283 1679 569.496 1662.24 565.369Q1659.4 564.67 1656.58 563.93C1655.26 568.898 1651.36 571.886 1648.13 575.663C1632.18 594.365 1615.18 610.641 1593.63 623.055C1587.63 626.514 1581.65 629.201 1574.94 631.003C1582.05 611.217 1588.07 592.256 1588.17 571.038C1588.22 560.832 1588.1 545.272 1580.52 537.592Q1577.36 538.488 1574.13 539.129Q1570.9 539.769 1567.64 540.15Q1564.37 540.531 1561.08 540.65Q1557.8 540.769 1554.51 540.625C1528.71 539.267 1528.26 526.648 1513.94 511.04C1513.81 510.899 1513.68 510.761 1513.55 510.621C1508.15 508.956 1502.8 507.354 1497.29 506.091C1497.93 505.462 1498.53 504.813 1499.07 504.092C1505.63 495.237 1505.03 482.255 1503.65 471.931C1506.04 465.443 1502.16 447.333 1499.53 441.055C1498.13 435.81 1492.57 434.302 1489.54 430.518C1487.64 428.157 1488.45 425.864 1488.72 423.097C1489.53 418.991 1492.05 414.286 1491.87 410.248C1491.86 410.068 1491.84 409.889 1491.83 409.71L1492.48 409.339C1490.1 409.956 1488.57 411.442 1486.74 412.98C1480.89 407.097 1473.4 402.131 1466.82 397.061L1426.39 366.175L1357.23 313.844C1346.3 305.636 1334.44 294.914 1322.2 288.934C1327.11 297.604 1333.9 369.326 1330.91 380.511C1330.64 381.529 1330.28 382.495 1329.86 383.462C1326.67 373.778 1258 325.725 1245.17 314.128C1267.93 304.976 1340.94 263.934 1350.64 243.288L1350.03 241.629L1347 241.89L1345.89 239.179C1347.44 237.697 1348.98 236.239 1350.04 234.347C1355.46 224.732 1363.97 178.457 1361.01 167.121ZM1937.65 192.499C1930.42 201.957 1871.26 226.122 1859.23 227.8C1859.02 227.829 1858.81 227.852 1858.6 227.878C1866.86 231.295 1893.46 253.568 1897.44 261.431L1897.4 262.536L1897.79 262.702C1908.55 267.435 1934.62 293.055 1939.75 293.908L1937.51 293.343L1940.09 293.347C1944.18 285.946 1942.62 205.869 1940.78 193.749C1939.57 192.614 1939.25 192.711 1937.65 192.499ZM1516.94 240.499C1521.62 259.748 1524.45 279.234 1528.4 298.609C1530.69 309.797 1534.49 320.993 1536.11 332.27C1536.49 334.887 1536.64 337.131 1535.57 339.616C1535.5 339.791 1535.43 339.97 1535.36 340.146C1535.12 340.725 1535.19 340.551 1534.86 341.187C1545.94 333.771 1555.77 320.022 1563.15 308.949L1563.34 306.429C1571.71 301.349 1594.23 269.079 1596.8 259.459C1597.16 258.128 1597.29 256.986 1596.97 255.627C1584.33 253.119 1571.53 251.423 1558.9 248.85C1545.66 246.154 1530.3 240.485 1516.94 240.499ZM1765.98 252.499C1741.29 259.75 1713.3 259.851 1687.79 260.109C1696.02 265.017 1719.17 308.017 1721.68 318.261C1721.94 319.31 1721.87 320.433 1721.79 321.498C1727.87 325.08 1738.07 338.619 1739.97 345.717C1740.27 346.851 1740.19 347.828 1740.04 348.972C1750.65 336.948 1772.02 270.404 1773.85 253.482L1773.07 251.835C1770.57 251.719 1768.41 252.032 1765.98 252.499Z"/>
	<path fill="#DD4E29" d="M1603.09 257.499C1615.35 255.722 1629.34 258.997 1641.74 259.586C1656.1 260.269 1670.5 259.552 1684.88 260.271C1685.51 261.962 1685.67 263.374 1685.26 265.122C1682.76 275.946 1664.46 320.404 1656.22 325.49C1656.6 326.359 1656.81 327.461 1656.72 328.411C1656.08 335.512 1646.75 350.414 1641.13 354.511C1640.51 341.592 1610.31 272.249 1603.09 257.499Z"/>
	<path fill="#DC1800" d="M1856.43 229.499C1857.64 229.479 1858.89 229.699 1860.09 229.828C1860.92 231.237 1861.1 232.25 1861.14 233.861C1861.47 247.45 1849.55 325.967 1842.43 333.396C1840.49 327.857 1817.96 304.048 1812.5 299.503C1812.49 298.911 1812.43 298.481 1812.27 297.907C1810.57 291.875 1780.49 254.876 1774.65 251.498C1799.22 247.508 1835.04 241.773 1856.43 229.499Z"/>
	<path fill="#DC1800" d="M1433.34 208.88C1447.34 211.381 1460.5 219.859 1473.81 224.822C1482.59 228.097 1507.41 234.19 1513.27 238.924C1513.64 245.595 1503.55 255.99 1499.31 260.747C1487.1 274.436 1453.37 310.329 1437.25 315.267C1440.58 309.871 1436.8 224.656 1434.67 214.452C1434.27 212.537 1433.81 212.023 1432.28 210.854L1433.34 208.88Z"/>
	<path fill="#DC1800" d="M1361.01 167.121C1362.36 167.962 1363.13 168.205 1363.84 169.658C1366.01 170.031 1368.03 170.617 1369.97 171.673C1378.86 176.495 1387.12 182.573 1395.92 187.593C1402.51 191.352 1429.54 203.249 1432.71 207.6C1433.07 208.095 1433.07 208.233 1433.34 208.88L1432.28 210.854C1424.86 219.78 1404.44 233.506 1393.88 239.033C1401.26 245.949 1425.24 302.381 1425.35 312.339C1425.36 313.241 1425.22 314.089 1425.08 314.977C1425.05 315.169 1425.03 315.363 1425.01 315.556C1418.87 311.032 1383.06 301.191 1372.42 296.859C1355.07 289.794 1338.53 275.686 1320.61 271.113C1323.59 275.071 1324.54 280.528 1323.75 285.398C1323.54 286.709 1322.94 287.839 1322.2 288.934C1327.11 297.604 1333.9 369.326 1330.91 380.511C1330.64 381.529 1330.28 382.495 1329.86 383.462C1326.67 373.778 1258 325.725 1245.17 314.128C1267.93 304.976 1340.94 263.934 1350.64 243.288L1350.03 241.629L1347 241.89L1345.89 239.179C1347.44 237.697 1348.98 236.239 1350.04 234.347C1355.46 224.732 1363.97 178.457 1361.01 167.121Z"/>
	<path fill="#FAFAFA" d="M1363.84 169.658C1366.01 170.031 1368.03 170.617 1369.97 171.673C1378.86 176.495 1387.12 182.573 1395.92 187.593C1402.51 191.352 1429.54 203.249 1432.71 207.6C1433.07 208.095 1433.07 208.233 1433.34 208.88L1432.28 210.854C1424.86 219.78 1404.44 233.506 1393.88 239.033C1388.2 248.41 1358.17 262.923 1347.37 267.734C1347.65 267.428 1347.76 267.322 1348.04 266.962C1356.84 255.663 1365.29 185.278 1363.84 169.658Z"/>
	<path fill="#FAFAFA" d="M1518.77 385.572C1518.67 385.757 1518.58 385.945 1518.47 386.126C1516.58 389.394 1499.87 403.089 1496.28 404.032C1506.46 386.07 1533.58 376.051 1552.69 370.772C1574.69 364.692 1600.89 365.601 1621.09 377.061C1635.28 385.114 1645.23 399.554 1649.48 415.143C1651.47 422.461 1649.91 431.934 1652.5 438.455C1656.49 437.755 1661.41 435.518 1665.05 433.68C1664.78 434.249 1664.19 435.946 1663.79 436.303C1661.41 438.4 1657.01 439.961 1654.23 441.997C1648.95 445.856 1643.38 452.03 1637.66 454.903C1637.97 453.696 1638.25 452.577 1638.83 451.465C1643.17 443.162 1639.63 423.164 1636.75 414.222C1631.62 398.329 1620.72 383.115 1605.6 375.457C1586.83 365.953 1565.49 369.986 1546.49 376.428C1538.91 378.996 1530.54 383.259 1522.74 384.637C1522.16 390.851 1518.88 397.791 1517.65 404.191C1516.37 410.915 1515.8 428.939 1513.63 433.75L1514.26 434.113C1521.27 438.227 1532.07 450.242 1540.51 448.695C1541.03 446.09 1540.4 444.838 1538.96 442.597C1525.25 421.372 1519.69 422.126 1524.33 393.747C1524.54 392.495 1524.85 391.256 1525.18 390.032L1526.05 389.848C1527.01 394.061 1526.35 398.222 1527.09 402.398C1529.2 414.255 1539.57 424.608 1549.44 430.827C1566.07 441.316 1579.17 437.598 1593.8 444.627C1579.39 445.436 1555.5 440.367 1544.72 430.866C1536.44 423.573 1530.63 415.079 1520.34 410.287C1527.27 415.765 1529.22 423.563 1533.84 430.697C1543.5 445.608 1567.31 450.499 1584.04 448.495C1593.34 447.382 1609.42 443.11 1617.51 449.288C1621.16 452.08 1623.4 456.758 1623.76 461.279C1624.27 467.797 1621.52 474.388 1617.25 479.227C1612.15 485.011 1606.45 486.766 1599.01 487.407L1598.13 488.881C1599.98 490.008 1601.12 490.371 1603.35 489.945C1609.69 488.734 1616.15 483.255 1622.6 483.324C1624.93 486.891 1616.67 519.264 1631.99 542.816C1639.76 554.748 1649.66 556.047 1654.6 562.42C1654.04 570.152 1632.49 590.563 1626.12 596.082C1611.82 608.476 1593.89 623.169 1575.3 628.117C1586.89 616.128 1591.01 584.937 1590.73 568.795C1590.54 557.409 1588.81 542.538 1581.99 533.074C1569.93 538.726 1554.34 539.877 1541.76 535.396C1522.56 528.561 1526.64 517.998 1516.04 509.07C1515.86 508.918 1515.69 508.756 1515.51 508.604C1515.4 508.513 1515.29 508.43 1515.18 508.342L1514.55 508.119C1510.81 506.821 1506.72 507.12 1503.78 504.252C1502.36 496.983 1509.16 478.195 1510.44 469.736C1508.13 470.383 1505.9 471.121 1503.65 471.931C1506.04 465.443 1502.16 447.333 1499.53 441.055C1498.13 435.81 1492.57 434.302 1489.54 430.518C1487.64 428.157 1488.45 425.864 1488.72 423.097C1491.39 429.318 1498.98 437.305 1505.64 439.578C1506.86 439.996 1507.99 440.096 1509.27 439.993L1511.43 438.44C1511.58 429.422 1510.31 419.97 1512.17 411.099C1513.7 403.846 1519.73 394.621 1519.03 387.552C1519.01 387.338 1519 387.124 1518.97 386.91C1518.93 386.461 1518.85 386.016 1518.77 385.572Z"/>
	<path fill="#242424" d="M1614.8 379.493C1615.09 379.47 1615.38 379.437 1615.67 379.423C1620.03 379.221 1624.84 383.155 1627.9 385.925C1639.55 396.461 1648.29 414.648 1649.01 430.32C1649.23 435.074 1648.99 438.882 1645.69 442.503L1645.62 444.125L1644.42 444.36C1642.16 439.212 1643.41 431.821 1642.63 426.192C1641.7 419.404 1639.16 412.362 1636.48 406.087C1632.14 395.919 1625.51 383.826 1614.8 379.493Z"/>
	<path fill="#242424" d="M41.9751 143.341C32.0943 132.823 21.9623 122.234 13.3903 110.608C10.6965 106.955 4.04076 97.4684 4.69875 93.0948C5.07106 93.0411 5.47448 92.7751 5.81568 92.9335C5.91249 92.9785 7.31343 96.0559 7.46399 96.3478C9.77102 100.821 12.7104 104.962 15.7075 108.995C36.4436 136.895 62.2157 159.254 90.7575 178.803C200.972 254.292 354.344 271.068 483.404 246.892C621.354 221.05 727.832 149.701 806.981 33.9532L807.859 34.2419L807.296 36.7517C795.007 54.2562 766.993 95.664 751.017 107.116L749.535 109.514C732.01 129.08 708.562 150.8 686.1 164.577C683.831 165.804 681.501 166.396 680.786 169.137C680.607 169.826 680.625 170.14 680.602 170.8C681.946 179.515 688.78 238.939 691.236 241.484C693.096 245.215 694.368 248.802 695.48 252.817C702.559 258.484 711.053 264.164 717.101 270.905C738.995 286.373 761.334 300.431 785.241 312.607L794.213 316.72C820.954 328.376 848.727 341.683 877.665 346.515L882.231 347.43C911.093 354.889 942.505 360.62 972.326 361.875L977.91 362.692C999.043 363.516 1039.05 367.291 1058.56 361.655C1061.85 361.008 1065.39 361.088 1068.75 360.968C1097.13 354.438 1126.95 355.207 1154.76 345.209C1157.81 344.694 1160.68 343.931 1163.65 343.063C1190.79 336.73 1217.84 326.477 1243.27 315.161L1245.17 314.128C1258 325.725 1326.67 373.778 1329.86 383.462C1330.28 382.495 1330.64 381.529 1330.91 380.511C1333.9 369.326 1327.11 297.604 1322.2 288.934C1334.44 294.914 1346.3 305.636 1357.23 313.844L1426.39 366.175L1466.82 397.061C1473.4 402.131 1480.89 407.097 1486.74 412.98C1488.57 411.442 1490.1 409.956 1492.48 409.339L1491.83 409.71C1491.84 409.889 1491.86 410.068 1491.87 410.248C1492.05 414.286 1489.53 418.991 1488.72 423.097C1488.45 425.864 1487.64 428.157 1489.54 430.518C1492.57 434.302 1498.13 435.81 1499.53 441.055C1502.16 447.333 1506.04 465.443 1503.65 471.931C1505.03 482.255 1505.63 495.237 1499.07 504.092C1498.53 504.813 1497.93 505.462 1497.29 506.091C1502.8 507.354 1508.15 508.956 1513.55 510.621C1513.68 510.761 1513.81 510.899 1513.94 511.04C1528.26 526.648 1528.71 539.267 1554.51 540.625Q1557.8 540.769 1561.08 540.65Q1564.37 540.531 1567.64 540.15Q1570.9 539.769 1574.13 539.129Q1577.36 538.488 1580.52 537.592C1588.1 545.272 1588.22 560.832 1588.17 571.038C1588.07 592.256 1582.05 611.217 1574.94 631.003C1581.65 629.201 1587.63 626.514 1593.63 623.055C1615.18 610.641 1632.18 594.365 1648.13 575.663C1651.36 571.886 1655.26 568.898 1656.58 563.93Q1659.4 564.67 1662.24 565.369C1679 569.496 1698.42 571.283 1713.9 561.898C1722.45 565.833 1730.61 572.216 1737.97 578.012C1748.67 586.438 1797.09 632.359 1798.66 645.614C1810.75 637.704 1820.54 627.746 1834.23 622.081C1843.46 618.26 1854.6 617.462 1863.33 612.828C1868.38 605.205 1851.92 543.26 1870.89 513.026C1876.76 503.664 1886.67 496.485 1897.55 494.223C1908.43 491.959 1919.82 495.555 1928.92 501.531C1939.85 508.708 1945.72 519.51 1948.3 532.087C1950.59 543.297 1948.98 590.048 1943.38 598.466C1954.09 600.24 1964.57 600.282 1975.31 601.349L1975.97 603.168C1976.78 604.588 1977.47 605.78 1977.51 607.452C1978.17 631.295 1977.51 655.278 1977.45 679.132L1977.54 798.927Q1977.95 855.642 1977.04 912.352C1976.84 920.149 1977.86 931.715 1975.77 939.107C1975.53 939.957 1975.09 940.752 1974.62 941.493C1882.59 943.106 1790.46 940.386 1698.4 941.464C1677.15 941.713 1655.45 941.203 1634.24 942.653C1618.19 943.751 1602.54 946.988 1586.38 946.96C1560.27 946.915 1534.26 943.505 1508.17 942.994C1443.93 941.736 1379.48 942.554 1315.21 942.341L1123.21 941.733L1068.79 941.636C1059.72 941.619 1049.62 942.383 1040.69 941.076C1035.23 941.548 1029.49 941.313 1024 941.417L69.6012 941.845Q68.4606 841.07 68.8999 740.292C68.8844 703.18 67.9694 665.651 69.7005 628.601L69.4797 625.678C70.774 614.089 69.8485 601.444 69.7633 589.726L69.4805 525.318L69.5165 287.379C69.6026 274.262 69.5163 261.062 70.3816 247.97C70.777 241.986 74.3803 220.744 73.1922 217.253C85.1836 214.125 97.3135 201.205 106.475 193.12C83.3153 178.571 62.5353 161.287 41.9751 143.341ZM445.21 256.214C455.216 273.14 466.841 287.997 479.323 303.097Q493.415 321.237 506.736 339.951C513.386 320.338 530.156 260.483 525.843 242.882C525.683 242.229 525.551 241.576 525.383 240.924C514.675 242.214 503.899 245.873 493.379 248.314Q469.52 253.637 445.21 256.214ZM106.324 194.35C105.126 228.505 105.643 262.58 106.272 296.738C120.931 285.396 135.651 274.134 149.828 262.189C161.146 253.051 175.328 241.104 184.121 229.585C167.226 223.559 151.181 216.947 135.106 208.968C126.199 204.547 115.631 197.256 106.324 194.35ZM274.682 252.163C282.644 284.377 289.922 318.482 303.82 348.68C311.313 338.849 319.608 327.829 325.3 316.86C336.439 298.576 346.949 280.641 355.299 260.858C328.039 259.386 301.542 257.141 274.682 252.163Z"/>
	<path fill="#FAFAFA" d="M1934.56 713.498L1938.96 713.228C1941.13 714.519 1941.36 714.52 1942.22 716.869C1940.87 719.697 1940.08 719.934 1937.43 721.388C1935.94 721.566 1935.45 720.886 1934.23 720.066C1933.3 717.651 1933.92 715.872 1934.56 713.498Z"/>
	<path fill="#FAFAFA" d="M94.7431 734.206C97.4425 734.816 99.2632 735.264 101.382 737.204C102.303 740.45 101.676 741.945 100.938 745.193C98.3781 744.696 96.8062 744.15 94.7563 742.516C93.2951 739.684 94.1105 737.144 94.7431 734.206Z"/>
	<path fill="#FAFAFA" d="M89.8194 675.21C92.6684 675.723 94.7562 676.03 96.9958 678.053C98.4929 680.835 97.5416 683.684 96.9276 686.594C94.1509 686.155 92.2243 685.869 89.9983 683.966C88.4194 681.168 89.3085 678.207 89.8194 675.21Z"/>
	<path fill="#464646" d="M1883.33 869.837C1884.28 820.904 1880.16 772.081 1882.28 723.1C1882.54 717.275 1881.34 710.178 1882.81 704.576L1883.64 703.826C1886.29 710.222 1883.8 853.314 1883.46 869.837C1883.41 884.952 1887.09 930.172 1882.22 939.988C1881.22 938.298 1883.59 878.156 1883.33 869.837Z"/>
	<path fill="#DD4E29" d="M354.99 544.164C363.567 532.613 392.089 508.392 405.095 501.683C407.004 500.698 407.234 500.499 409.398 501.168C411.458 503.885 411.189 507.033 411.263 510.291C409.854 512.577 408.511 515.288 406.711 517.273C401.704 517.943 395.078 526.339 390.212 529.048C379.408 535.062 366.421 539.24 354.99 544.164Z"/>
	<path fill="#DD4E29" d="M246.999 674.12C268.106 636.629 293.055 601.118 326.847 573.863Q320.999 581.9 315.668 590.287Q310.336 598.675 305.541 607.38Q300.746 616.086 296.507 625.075Q292.268 634.064 288.601 643.302C284.319 654.375 282.302 666.522 276.697 677.026C266.707 677.083 256.963 674.495 246.999 674.12Z"/>
	<path fill="#FAFAFA" d="M474.618 650.991C447.267 638.726 406.455 587.333 388.333 562.842C391.969 565.361 395.876 568.685 400.014 570.26C419.585 592.619 459.903 604.985 487.937 611.675C489.762 618.566 491.152 625.578 492.634 632.55C491.496 635.483 490.278 638.488 488.792 641.26C485.611 647.193 480.727 649.06 474.618 650.991Z"/>
	<path fill="#DC1800" d="M1103.36 758.494C1113.11 757.303 1124.07 758.647 1133.9 758.964C1134.96 759.812 1136.01 760.848 1136.76 761.976C1141.53 769.118 1158.22 810.875 1156.78 817.916C1152.6 819.829 1146.52 819.311 1141.94 819.478C1126.16 820.84 1109.35 819.277 1093.48 818.888C1093.54 818.753 1093.61 818.621 1093.66 818.485C1097.38 809.425 1097.31 769.301 1093.43 759.476L1103.36 758.494Z"/>
	<path fill="#FAFAFA" d="M1357.23 836.502C1381.33 836.084 1407.34 833.962 1431.14 837.772C1433.3 838.682 1435.38 840.819 1437.3 842.212C1444.4 847.38 1449.92 847.003 1458.35 847.407L1458.85 848.207C1451.6 851.199 1437.66 848.131 1429.57 847.999C1410.09 847.68 1387.83 848.073 1369.26 854.12C1361.67 856.593 1354.68 860.529 1347.19 863.218C1334.3 867.845 1329.5 868.058 1317.7 876.492C1317.68 876.657 1317.68 876.826 1317.63 876.986C1316.13 882.525 1297.87 900.744 1292.39 903.701C1289.88 905.058 1288.54 904.739 1285.96 903.957C1284.61 900.491 1286.83 898.076 1285.61 894.811C1284.41 896.985 1283.27 899.188 1282.06 901.351C1279.86 905.27 1275.52 912.114 1270.82 913.205C1269.28 913.563 1268.79 912.878 1267.52 912.082C1266.86 910.603 1266.34 909.15 1266.28 907.52C1265.74 893.525 1280.22 872.511 1289.79 862.582C1308.19 843.489 1331.43 837.015 1357.23 836.502Z"/>
	<path fill="#DD4E29" d="M438.54 257.453C440.428 257.166 440.381 257.074 441.964 258.114C443.328 269.825 412.188 342.242 405.626 356.837L389.275 328.395C377.037 306.351 368.028 282.769 356.556 260.361C383.99 261.271 411.205 259.546 438.54 257.453Z"/>
	<path fill="#DC1800" d="M189 230.579C214.413 241.522 244.499 246.427 271.506 251.49C259.224 267.169 247.526 283.215 234.789 298.546C224.553 312.393 213.051 325.279 201.607 338.125C190.91 306.356 189.121 264.013 189 230.579Z"/>
	<path fill="#DC1800" d="M610.11 210.07L611.203 211.922C610.069 228.715 610.439 245.502 609.866 262.307C609.175 282.6 607.63 302.86 606.867 323.147C590.208 308.316 575 292.887 559.861 276.512C549.707 265.528 537.457 249.604 525.383 240.924C540.367 235.122 556.224 231.856 571.298 226.329C584.495 221.491 596.625 214.254 610.11 210.07Z"/>
	<path fill="#FAFAFA" d="M547.77 834.01C580.109 834.052 612.503 834.406 644.835 833.842C668.216 833.434 693.929 829.298 716.88 833.98C735.385 837.755 753.528 846.744 766.893 860.209C779.818 873.231 786.207 889.983 785.908 908.285C785.905 908.436 785.897 908.587 785.892 908.739C773.503 888.523 762.287 871.651 741.361 859.405C737.763 857.299 733.335 854.265 729.231 853.387C727.703 853.06 726.067 853.109 724.519 853.192C724.831 854.674 724.854 854.583 726.152 855.453C729.789 857.89 734.539 858.329 738.43 860.485C753.137 868.634 775.859 887.474 779.638 904.727C780.015 906.447 779.764 907.102 779.264 908.722C778.113 909.181 777.088 909.688 775.821 909.622C762.078 895.717 752.385 880.412 733.021 873.434C726.63 871.13 718.997 871.897 712.899 869.205C702.864 864.776 692.939 856.233 681.683 855.166C651.554 840.285 584.098 847.262 549.315 845.97C548.786 842.007 548.08 837.992 547.77 834.01Z"/>
	<path fill="#DD4E29" d="M993.703 887.78C995.723 886.302 997.985 884.574 1000.43 883.93C1012.02 880.881 1075.1 880.745 1087.97 882.342C1089.02 882.473 1090.09 882.765 1091.11 883.064C1093.98 889.453 1094.71 929.713 1092.56 936.868C1092.24 937.909 1091.65 938.86 1091.03 939.743C1074.45 941.262 1057.12 938.589 1040.69 941.076C1035.23 941.548 1029.49 941.313 1024 941.417C1023.7 941.265 1023.4 941.103 1023.1 940.96C1014.3 936.818 998.324 945.209 991.594 929.294C986.988 918.402 989.716 898.711 993.703 887.78Z"/>
	<path fill="#DC1800" d="M998.173 758.666C1028.59 760.291 1059.64 758.985 1090.13 758.935C1095.42 766.289 1093.92 807.238 1092.59 817.132L1091.48 818.551C1088.37 818.918 1085.39 819.099 1082.25 819.051C1065.7 819.171 1006.88 824.555 996.459 814.668C989.783 808.333 989.988 797.035 989.968 788.5C989.941 777.184 990.691 767.684 998.173 758.666Z"/>
	<path fill="#DD4E29" d="M610.11 210.07C621.761 202.008 635.485 196.535 647.834 189.541C658.859 183.296 668.967 175.598 679.898 169.35L680.602 170.8C681.946 179.515 688.78 238.939 691.236 241.484C693.096 245.215 694.368 248.802 695.48 252.817C702.559 258.484 711.053 264.164 717.101 270.905L716.144 271.55C705.196 275.159 694.128 281.576 683.469 286.178Q648.389 301.092 613.08 315.459C623.295 287.219 632.276 258.379 642.029 229.96C630.964 224.636 620.54 220.058 611.203 211.922L610.11 210.07Z"/>
	<path fill="#FAFAFA" d="M1476.22 849.5C1480.21 849.312 1484.22 849.795 1488.2 850.151C1489.12 851.211 1489.61 852.051 1490.02 853.398C1493.57 865.261 1503.12 916.229 1498.26 925.487C1477.4 919.046 1454.81 917.781 1433.68 911.49C1417.81 906.763 1403.14 896.423 1387.13 893.094C1385.92 895.699 1363.56 909.664 1359.63 911.789C1356.01 913.745 1353.22 914.917 1349.22 913.676C1348.78 913.132 1348.7 912.784 1348.57 912.078C1345.99 897.742 1372.09 884.565 1376.17 877.687C1376.25 877.561 1376.31 877.429 1376.38 877.301C1377.58 876.334 1378 876.186 1378.45 874.674C1361.31 877.143 1351.64 903.088 1341.23 913.8C1339.03 916.054 1336.75 917.415 1333.52 917.371C1332.7 917.36 1332.04 916.296 1331.49 915.708L1331.68 911.156C1328.97 914.578 1326.33 917.92 1323.13 920.913C1321.12 921.599 1319 922.537 1316.84 922.069C1315.32 921.738 1315.24 920.969 1314.47 919.698C1314.33 908.159 1327.08 887.268 1334.84 878.526C1367.48 841.73 1431.16 852.211 1476.22 849.5Z"/>
	<path fill="#FAFAFA" d="M520.874 419.522L527.479 429.901C536.367 446.411 542.27 442.098 553.429 451.878C551.993 456.111 550.726 463.977 546.414 466.032C542.835 467.739 537.4 467.082 533.489 467.017L547.23 471.275C546.664 477.694 546.125 484.136 546.271 490.585C546.372 495.032 548.922 509.541 547.701 512.551C543.597 512.06 534.455 508.934 531.379 509.985C532.561 512.146 534.058 513.454 535.89 515.025C529.214 527.633 520.267 539.199 505.976 543.475C493.826 547.111 481.759 543.586 470.8 538.108C464.345 547.247 460.078 555.509 461.95 567.137C464.476 582.826 476.498 597.014 485.893 609.223C448.317 599.49 432.424 590.131 400.014 570.26C398.832 567.601 374.215 546.038 369.641 540.912C384.892 535.653 396.332 530.071 406.711 517.273C408.511 515.288 409.854 512.577 411.263 510.291C412.542 507.561 412.593 506.192 415.412 504.948C419.474 505.538 423.584 510.204 426.625 512.846C433.566 502.423 438.546 491.205 443.473 479.746C448.74 483.14 454.303 486.533 460.721 487.014C453.391 480.639 445.285 480.51 440.474 470.578C437.568 464.58 436.663 457.215 438.942 450.862C440.862 445.511 445.021 441.675 450.156 439.401C454.543 437.459 458.695 437.096 463.176 438.873C471.767 442.28 474.652 447.456 478.188 455.457L478.76 455.288C499.15 449.057 510.991 438.097 520.874 419.522Z"/>
	<path fill="#242424" d="M529.86 476.455C532.627 477.982 532.87 478.126 534.198 480.976C534.158 484.373 532.733 486.614 531.085 489.475C529.583 488.436 528.599 487.164 527.466 485.745C526.55 482.405 528.481 479.417 529.86 476.455Z"/>
	<path fill="#DC1800" d="M409.304 498.691C407.03 463.502 382.628 431.79 391.277 395.84Q391.633 394.3 392.066 392.78Q392.498 391.26 393.007 389.764Q393.515 388.268 394.098 386.799Q394.68 385.33 395.336 383.892Q395.991 382.454 396.718 381.05Q397.445 379.647 398.241 378.282Q399.037 376.917 399.901 375.593Q400.764 374.27 401.693 372.991Q402.622 371.712 403.613 370.482Q404.605 369.251 405.657 368.072Q406.709 366.893 407.819 365.768Q408.929 364.643 410.093 363.575Q411.258 362.507 412.475 361.498Q413.692 360.49 414.958 359.544Q416.224 358.598 417.535 357.716Q418.847 356.835 420.201 356.02C438.617 344.908 461.418 343.39 482.005 348.543C495.841 352.005 504.632 360.729 516.529 367.7C530.313 375.777 549.734 380.104 558.476 394.636L555.277 399.415C557.586 410.342 573.252 407.797 571.517 432.995C566.125 445.043 556.063 445.989 553.429 451.878C542.27 442.098 536.367 446.411 527.479 429.901C524.732 421.62 523.665 414.481 523.401 405.828C522.344 409.047 521.284 412.307 520.029 415.452C512.394 434.578 498.231 444.416 480.007 452.232C475.503 445.204 471.272 439.196 462.821 436.653Q462.329 436.505 461.83 436.382Q461.331 436.259 460.826 436.16Q460.322 436.061 459.813 435.987Q459.304 435.913 458.792 435.864Q458.281 435.814 457.767 435.79Q457.254 435.766 456.74 435.767Q456.225 435.768 455.712 435.794Q455.199 435.82 454.687 435.871Q454.176 435.923 453.667 435.999Q453.159 436.075 452.655 436.176Q452.151 436.276 451.652 436.402Q451.153 436.527 450.662 436.677Q450.17 436.826 449.686 436.999Q449.202 437.173 448.727 437.37Q448.252 437.566 447.787 437.786Q447.322 438.006 446.869 438.248C441.47 441.169 437.78 446.264 436.206 452.144C433.634 461.755 437.156 469.952 441.936 478.06C437.533 488.649 432.994 498.774 426.774 508.441Q418.112 503.435 409.304 498.691Z"/>
	<path fill="#DD4E29" d="M1001.19 821.069Q1079.11 820.263 1157.03 821.01C1171.35 831.232 1190.21 923.417 1204.66 931.347C1210.54 934.571 1217.79 935.663 1224.41 936.125C1248.29 937.79 1274.28 936.145 1298.45 936.208L1366.45 935.939C1379.08 935.947 1391.91 936.794 1404.52 936.248C1408.57 936.073 1412.81 935.619 1416.67 934.367C1419.28 933.522 1421.8 932.387 1423.13 929.858C1423.18 927.527 1423.09 926.244 1421.46 924.335C1414.78 916.552 1360.24 920.071 1348.14 919.828C1356.94 916.84 1383 904.387 1387.69 896.225C1397.48 898.304 1408.53 904.157 1418.08 907.701C1433.86 913.557 1449.84 918.17 1466.2 922.121C1476.3 924.065 1494.11 924.324 1502.08 930.544C1504.17 932.182 1504.72 933.396 1505.01 935.918C1504.53 937.156 1504.08 938.292 1503.11 939.239C1502.8 939.537 1501.74 940.599 1501.34 940.73C1497.18 942.085 1419.45 940.858 1410.12 940.756L1092.92 940.076Q1094.03 938.092 1094.51 935.866C1096.63 926.084 1096.71 890.33 1091.61 882.617C1106.52 883.062 1124.29 884.945 1138.94 882.21C1132.14 875.731 1025.04 882.946 1006.37 879.866C1002.18 879.175 996.611 877.988 994.077 874.221C988.514 865.95 989.333 840.924 991.533 831.437C992.744 826.212 996.911 823.708 1001.19 821.069Z"/>
	<path fill="#DC1800" d="M103.207 629.201C97.835 604.564 89.4645 572.016 104.466 549.168C110.203 540.431 119.031 533.964 129.356 531.911Q130.325 531.718 131.302 531.574Q132.279 531.43 133.262 531.335Q134.245 531.24 135.232 531.194Q136.219 531.148 137.206 531.152Q138.194 531.156 139.18 531.21Q140.166 531.263 141.149 531.366Q142.131 531.469 143.107 531.621Q144.083 531.773 145.05 531.974Q146.017 532.175 146.973 532.424Q147.929 532.673 148.871 532.97Q149.813 533.266 150.739 533.61Q151.665 533.953 152.573 534.343Q153.48 534.733 154.367 535.167Q155.254 535.602 156.118 536.08Q156.982 536.559 157.821 537.08Q158.66 537.601 159.472 538.164C170.243 545.614 175.928 557.702 178.098 570.301C182.478 595.723 174.703 618.831 174.923 643.903C179.912 645.222 185.259 646.417 189.939 648.617C207.192 656.727 226.818 674.467 246.999 674.12C256.963 674.495 266.707 677.083 276.697 677.026C272.806 694.898 267.686 712.533 264.385 730.533C252.583 794.878 248.364 875.543 260.519 940.014L209.885 939.951C203.729 930.584 199.212 919.447 195.119 909.04C171.202 848.234 159.851 776.776 173.855 712.343C178.404 691.413 185.881 671.846 194.412 652.289C186.659 649.991 178.575 648.422 170.695 646.585C174.627 625.222 179.095 600.888 176.518 579.243C174.82 564.976 168.957 549.007 157.236 540.016C150.545 534.883 142.404 533.148 134.13 534.408C124.064 535.94 114.697 540.709 108.693 549.078C94.2707 569.184 101.571 596.054 104.949 618.353C105.551 622.328 107.324 629.45 104.827 632.83C95.8749 635.489 78.9866 630.253 69.7005 628.601L69.4797 625.678C80.7123 627.241 91.8476 628.987 103.207 629.201Z"/>
	<path fill="#FAFAFA" d="M365.677 541.982C372.048 542.875 440.035 634.433 464.855 648.15C469.651 650.801 475.087 652.473 480.52 650.855C487.913 648.654 490.841 642.542 494.254 636.26C506.468 698.156 510.672 766.54 510.043 829.639C486.67 833.246 462.949 834.212 439.565 837.858C429.607 793.997 427.239 748.357 428.563 703.492C429.141 683.927 432.189 663.968 430.762 644.439C429.413 625.979 421.976 608.377 407.775 596.157Q406.584 595.136 405.343 594.176Q404.102 593.215 402.816 592.318Q401.529 591.42 400.199 590.588Q398.869 589.755 397.5 588.99Q396.13 588.224 394.724 587.528Q393.319 586.831 391.88 586.205Q390.441 585.58 388.973 585.026Q387.505 584.472 386.012 583.993Q384.518 583.513 383.002 583.107Q381.487 582.702 379.953 582.373Q378.419 582.043 376.87 581.791Q375.322 581.538 373.763 581.362Q372.204 581.187 370.638 581.089Q369.072 580.991 367.503 580.971Q365.935 580.951 364.367 581.009Q362.799 581.067 361.236 581.203Q359.639 581.325 358.05 581.527Q356.462 581.729 354.885 582.01Q353.308 582.291 351.747 582.65Q350.187 583.009 348.646 583.445Q347.105 583.881 345.588 584.394Q344.07 584.907 342.581 585.495Q341.091 586.082 339.632 586.744Q338.174 587.405 336.75 588.138Q335.326 588.871 333.94 589.674Q332.555 590.478 331.211 591.349Q329.867 592.22 328.569 593.158Q327.27 594.095 326.02 595.096Q324.77 596.097 323.571 597.158Q322.372 598.22 321.228 599.341Q320.083 600.461 318.996 601.637Q317.909 602.813 316.882 604.042C302.52 621.162 299.184 640.993 301.103 662.75C300.295 682.175 303.068 702.71 304.932 722.037C308.719 761.298 313.447 809.718 322.983 848.027C326.498 862.147 331.373 876.058 338.285 888.891C353.099 916.395 373.534 930.814 403.054 939.644C384.558 940.852 365.746 940.356 347.209 940.309L262.324 940.007C249.597 844.251 253.655 735.852 290.543 645.431C305.079 609.8 328.857 557.493 365.677 541.982Z"/>
	<path fill="#FAFAFA" d="M359.291 583.262C373.888 580.933 388.301 585.671 400.451 593.548C413.897 602.265 422.992 616.145 426.669 631.635C431.654 652.632 426.147 695.029 425.914 718.926Q425.636 734.215 426.244 749.494Q426.852 764.773 428.345 779.991Q429.837 795.209 432.209 810.315Q434.581 825.421 437.825 840.364C473.513 837.796 509.022 831.38 544.633 827.805C549.207 864.396 552.943 901.25 559.511 937.55C544.808 938.856 529.67 938.661 514.907 939.11C501.541 940.777 487.706 940.832 474.243 941.332C438.596 942.655 401.082 944.295 370.267 922.977C339.556 901.731 327.515 863.162 321.129 828.169C313.304 785.287 308.809 741.314 305.102 697.878C303.665 681.037 301.09 663.149 302.658 646.259C303.856 633.356 307.581 620.496 315.055 609.797C325.798 594.421 341.186 586.551 359.291 583.262Z"/>
	<path fill="#DC1800" d="M1863.33 612.828C1868.38 605.205 1851.92 543.26 1870.89 513.026C1876.76 503.664 1886.67 496.485 1897.55 494.223C1908.43 491.959 1919.82 495.555 1928.92 501.531C1939.85 508.708 1945.72 519.51 1948.3 532.087C1950.59 543.297 1948.98 590.048 1943.38 598.466C1954.09 600.24 1964.57 600.282 1975.31 601.349L1975.97 603.168L1975.34 604.28C1963.12 603.041 1950.49 601.939 1938.2 601.986C1948.02 590.96 1947.31 560.823 1946.53 547.068C1945.68 532.105 1941.79 516.449 1930.09 506.14C1922.71 499.636 1913.4 496.646 1903.62 497.292C1893.77 497.941 1884.09 501.627 1877.49 509.164C1862.63 526.129 1863.09 556.95 1864.7 577.967C1865.3 585.803 1870 609.333 1866.53 615.214C1859.13 620.531 1846.36 620.208 1837.75 624.191C1825.29 629.956 1810.88 643.66 1799.57 647.513C1805.91 652.706 1810.2 662.436 1813.73 669.688C1830.4 703.867 1840 739.723 1843.75 777.473C1848.29 823.149 1844.98 868.379 1829.8 911.965C1826.85 920.434 1824.09 930.262 1818.42 937.316C1817.59 938.355 1816.67 939.188 1815.52 939.86L1703.17 940.191C1682.16 940.213 1661.45 941.551 1640.49 939.415C1680.46 929.662 1712.68 900.801 1733.64 866.245C1765.63 813.512 1775.65 741.995 1773.75 680.995C1773.46 671.558 1774.06 660.025 1771.98 650.866C1771.79 650.037 1771.48 649.236 1771.14 648.46L1769.79 648.269C1767.33 656.343 1772.34 684.962 1771.95 696.889C1769.21 780.418 1750.2 883.038 1669.18 925.962C1617.3 953.446 1559.53 941.997 1503.75 940.569C1507.97 932.454 1494.36 855.653 1490.57 842.933C1489.96 840.898 1488.83 839.436 1487.45 837.863C1517.94 838.629 1577.24 846.075 1603.84 840.291C1614.12 838.056 1623.72 833.508 1631.35 826.148C1654.38 803.918 1656.55 762.884 1656.8 733.004C1656.89 722.12 1657.9 665.048 1653.91 659.056C1650.95 666.334 1653.23 680.745 1653.55 688.903C1655.22 731.87 1662.84 813.765 1614.2 834.608C1594.19 843.182 1569.75 839.996 1548.59 838.769C1552.42 828.384 1547.33 801.704 1547.12 789.128Q1546.91 776.661 1547.45 764.203Q1547.99 751.746 1549.28 739.344Q1550.56 726.941 1552.6 714.639Q1554.63 702.337 1557.4 690.179C1559.4 681.602 1575.59 637.048 1574.55 631.967L1574.94 631.003C1581.65 629.201 1587.63 626.514 1593.63 623.055C1615.18 610.641 1632.18 594.365 1648.13 575.663C1651.36 571.886 1655.26 568.898 1656.58 563.93Q1659.4 564.67 1662.24 565.369C1679 569.496 1698.42 571.283 1713.9 561.898C1722.45 565.833 1730.61 572.216 1737.97 578.012C1748.67 586.438 1797.09 632.359 1798.66 645.614C1810.75 637.704 1820.54 627.746 1834.23 622.081C1843.46 618.26 1854.6 617.462 1863.33 612.828Z"/>
	<path fill="#DD4E29" d="M717.101 270.905C738.995 286.373 761.334 300.431 785.241 312.607L794.213 316.72C820.954 328.376 848.727 341.683 877.665 346.515L882.231 347.43C911.093 354.889 942.505 360.62 972.326 361.875L977.91 362.692C999.043 363.516 1039.05 367.291 1058.56 361.655C1061.85 361.008 1065.39 361.088 1068.75 360.968C1097.13 354.438 1126.95 355.207 1154.76 345.209C1157.81 344.694 1160.68 343.931 1163.65 343.063C1190.79 336.73 1217.84 326.477 1243.27 315.161L1245.17 314.128C1258 325.725 1326.67 373.778 1329.86 383.462C1330.28 382.495 1330.64 381.529 1330.91 380.511C1333.9 369.326 1327.11 297.604 1322.2 288.934C1334.44 294.914 1346.3 305.636 1357.23 313.844L1426.39 366.175L1466.82 397.061C1473.4 402.131 1480.89 407.097 1486.74 412.98C1488.57 411.442 1490.1 409.956 1492.48 409.339L1491.83 409.71C1491.84 409.889 1491.86 410.068 1491.87 410.248C1492.05 414.286 1489.53 418.991 1488.72 423.097C1488.45 425.864 1487.64 428.157 1489.54 430.518C1492.57 434.302 1498.13 435.81 1499.53 441.055C1502.16 447.333 1506.04 465.443 1503.65 471.931C1505.03 482.255 1505.63 495.237 1499.07 504.092C1498.53 504.813 1497.93 505.462 1497.29 506.091C1502.8 507.354 1508.15 508.956 1513.55 510.621C1513.68 510.761 1513.81 510.899 1513.94 511.04C1528.26 526.648 1528.71 539.267 1554.51 540.625Q1557.8 540.769 1561.08 540.65Q1564.37 540.531 1567.64 540.15Q1570.9 539.769 1574.13 539.129Q1577.36 538.488 1580.52 537.592C1588.1 545.272 1588.22 560.832 1588.17 571.038C1588.07 592.256 1582.05 611.217 1574.94 631.003L1574.55 631.967Q1571.17 639.965 1568.16 648.11Q1565.15 656.256 1562.52 664.532Q1559.89 672.808 1557.64 681.197Q1555.4 689.586 1553.55 698.07Q1551.69 706.554 1550.23 715.115Q1548.77 723.676 1547.71 732.294Q1546.65 740.913 1545.99 749.572Q1545.33 758.231 1545.07 766.911C1544.78 777.185 1547.77 818.953 1544.25 824.011C1504.28 824.786 1464.48 819.667 1424.61 819.896C1427.77 823.114 1430.6 827.356 1431.08 831.947L1430.19 833.809C1421.55 835.894 1409.63 834.03 1400.61 833.806C1347.77 832.495 1304.69 829.144 1273.59 880.215C1269.18 887.457 1260.66 902.158 1262.6 910.849C1262.89 912.166 1263.89 913.923 1265.11 914.575C1267.49 915.855 1269.69 916.307 1272.34 915.456C1277.17 913.902 1280.64 909.181 1285.14 906.994C1289.49 904.882 1295.17 905.717 1299.35 903.359C1301.75 902.005 1303.31 899.473 1304.42 897.034C1305.16 895.413 1305.73 894.086 1305.63 892.276C1309.33 893.06 1314.61 893.75 1317.4 896.466C1318.52 902.47 1315.24 913.803 1311.78 918.892C1311.34 919.535 1310.73 920.085 1310.13 920.575C1280.98 924.412 1239.69 921.838 1209.17 921.931C1208.8 908.72 1165.18 804.61 1156.7 782.623C1149.23 763.28 1142.74 743.066 1134.6 724.049C1132.55 719.273 1129.94 712.98 1125.96 709.575C1125.03 708.779 1124.24 708.562 1123.06 708.363C1121.42 709.312 1120.77 709.422 1120.33 711.419C1117.31 725.167 1135.59 742.799 1133.5 756.781C1105.2 758.716 1067.97 757.276 1039 756.795C1029.46 756.637 1019.69 755.671 1010.18 756.179C1006.36 756.383 1001.48 756.563 998.173 758.666C994.134 760.538 991.739 762.894 990.244 767.167C986.154 778.863 987.018 799.239 989.26 811.403C992.548 814.007 996.013 816.524 999.13 819.326C995.857 822.446 992.594 825.472 989.067 828.31C988.515 838.537 985.589 861.188 989.355 870.252C990.99 874.185 995.526 877.327 996.917 880.905C997.645 882.776 990.401 889.023 989.063 890.953C988.11 907.691 986.34 923.325 993.452 939.119L703.521 938.922C686.174 938.94 571.896 940.224 562.798 937.221C561.283 935.382 561.277 934.751 560.924 932.354C561.946 929.247 563.835 927.811 566.652 926.418C575.115 922.232 585.132 920.581 593.968 917.115L594.375 915.879C582.671 918.603 570.962 922.617 559.396 925.958C557.526 900.45 552.679 874.513 549.651 849.037C593.303 848.196 638.937 845.784 681.683 855.166C692.939 856.233 702.864 864.776 712.899 869.205C718.997 871.897 726.63 871.13 733.021 873.434C752.385 880.412 762.078 895.717 775.821 909.622C777.088 909.688 778.113 909.181 779.264 908.722C779.764 907.102 780.015 906.447 779.638 904.727C775.859 887.474 753.137 868.634 738.43 860.485C734.539 858.329 729.789 857.89 726.152 855.453C724.854 854.583 724.831 854.674 724.519 853.192C726.067 853.109 727.703 853.06 729.231 853.387C733.335 854.265 737.763 857.299 741.361 859.405C762.287 871.651 773.503 888.523 785.892 908.739C787.274 908.028 788.405 907.029 789.07 905.592C790.997 901.431 789.724 896.423 788.391 892.28C784.369 879.78 775.963 867.004 766.836 857.647C734.723 824.725 695.897 830.038 653.987 830.747C631.445 831.129 608.665 830.248 586.166 831.402C577.134 831.865 557.578 835.466 549.61 831.409C548.311 829.287 547.038 827.834 545.13 826.238C536.606 823.572 521.198 828.048 512.31 829.523C511.211 753.743 507.476 683.882 490 609.853C479.571 600.867 468.546 583.801 465.113 570.389C462.227 559.115 465.329 550.803 470.97 541.228C481.139 544.888 491.922 548.375 502.86 546.576C521.556 543.501 527.525 528.948 537.969 515.992C539.998 513.475 543.943 514.118 547.041 513.826L547.701 512.551C548.922 509.541 546.372 495.032 546.271 490.585C546.125 484.136 546.664 477.694 547.23 471.275L533.489 467.017C537.4 467.082 542.835 467.739 546.414 466.032C550.726 463.977 551.993 456.111 553.429 451.878C556.063 445.989 566.125 445.043 571.517 432.995C573.252 407.797 557.586 410.342 555.277 399.415L558.476 394.636C575.299 391.355 692.916 299.567 713.508 283.772C714.017 279.666 715.192 275.576 716.144 271.55L717.101 270.905Z"/>
	<path fill="#FAFAFA" d="M717.101 270.905C738.995 286.373 761.334 300.431 785.241 312.607C778.406 320.652 767.392 327.778 758.911 334.154Q729.318 356.647 698.382 377.255C704.034 346.24 708.3 314.882 713.508 283.772C714.017 279.666 715.192 275.576 716.144 271.55L717.101 270.905Z"/>
	<path fill="#FAFAFA" d="M1058.56 361.655C1059.56 362.228 1061.41 362.865 1061.75 363.974C1063.56 369.837 1025.51 452.073 1020.52 460.213C1016.68 451.958 1013.68 443.421 1010.04 435.09C1005.12 423.819 999.679 412.793 994.941 401.442C989.496 388.398 984.574 375.187 977.91 362.692C999.043 363.516 1039.05 367.291 1058.56 361.655Z"/>
	<path fill="#FAFAFA" d="M1243.27 315.161C1247.76 321.427 1236.81 398.496 1234.76 410.857C1234.03 415.207 1233.34 419.222 1231.25 423.164C1231.15 423.366 1231.05 423.571 1230.94 423.774C1230.23 416.874 1172.33 351.803 1163.65 343.063C1190.79 336.73 1217.84 326.477 1243.27 315.161Z"/>
	<path fill="#DC1800" d="M1068.75 360.968C1097.13 354.438 1126.95 355.207 1154.76 345.209C1158.82 352.179 1152.45 368.41 1150.39 376.225C1146.75 389.988 1135.42 445.978 1128.54 453.774C1128.61 450.71 1128.39 450.139 1126.9 447.47C1117.05 429.88 1104.05 413.541 1092.94 396.682C1085.95 386.087 1079.49 372.022 1070.97 362.835C1070.26 362.069 1069.62 361.529 1068.75 360.968Z"/>
	<path fill="#DC1800" d="M794.213 316.72C820.954 328.376 848.727 341.683 877.665 346.515C854.676 375.6 828.378 401.199 802.17 427.335C801.65 413.382 799.736 399.285 798.651 385.345Q796.103 351.054 794.213 316.72Z"/>
	<path fill="#DC1800" d="M882.231 347.43C911.093 354.889 942.505 360.62 972.326 361.875C966.242 376.042 955.548 389.681 947.083 402.578C935.825 419.729 924.938 437.364 912.947 453.994C902.243 418.641 893.423 382.588 882.231 347.43Z"/>
	<path fill="#242424" d="M837.601 921.001C845.025 904.246 851.005 886.397 857.593 869.267L893.063 776.81C900.064 758.104 906.185 738.627 914.701 720.547C916.609 716.495 918.632 712.781 921.998 709.745C924.582 709.163 924.504 709.266 926.772 710.676C927.415 711.843 927.935 713.055 927.984 714.41C928.17 719.633 924.971 726.699 923.21 731.563C914.336 756.069 903.32 779.802 894.084 804.189C879.596 842.44 866.605 881.633 850.171 919.11C848.038 923.975 845.747 928.699 842.375 932.846C839.955 934.313 837.636 934.835 834.832 935.067C823.081 936.036 810.494 935.232 798.656 935.414Q746.364 935.968 694.07 935.532C678.328 935.408 646.167 936.912 631.94 934.222C629.327 933.728 627.341 932.951 626.051 930.436C624.902 928.197 625.472 925.867 626.265 923.646C633.384 917.821 687.756 919.975 699.376 919.883C683.478 913.549 669.578 904.273 655.054 895.376C648.564 898.22 639.954 902.813 632.832 902.763C640.483 899.746 647.895 896.377 655.32 892.845C668.903 901.374 682.219 910.114 696.903 916.672C691.488 906.912 685.392 896.989 677.572 888.957C674.784 886.094 666.125 880.927 664.942 877.99C687.208 885.311 691.663 916.765 707.375 921.876C709.253 922.487 709.341 922.422 711.107 921.544C711.23 921.131 711.285 920.989 711.358 920.524C712.494 913.316 701.585 895.335 697.056 890C691.054 882.929 683.451 876.922 678.261 869.212L677.727 868.402C687.456 875.795 695.577 883.346 702.088 893.784C705.658 899.507 715.104 922.783 719.695 924.764L721.905 923.8C724.38 916.983 707.573 888.251 702.431 882.191C699.052 878.208 691.371 874.294 689.64 869.694L691.442 868.62L691.932 870.131L692.183 868.603C699.048 870.15 711.874 891.305 715.057 897.587C718.941 905.253 721.708 920.905 729.693 925.079L730.8 924.353C730.912 923.668 731.01 922.986 731.052 922.292C731.804 909.944 719.064 890.092 711.068 881.043C705.807 875.09 699.599 870 694.247 864.073C717.826 877.704 725.977 899.758 736.328 923.614Q735.76 920.793 735.159 917.978C730.264 895.092 719.441 875.578 698.824 863.322C693.529 860.174 687.163 858.829 682.081 855.442C681.946 855.353 681.815 855.258 681.683 855.166C692.939 856.233 702.864 864.776 712.899 869.205C718.997 871.897 726.63 871.13 733.021 873.434C752.385 880.412 762.078 895.717 775.821 909.622C770.599 907.394 767.094 903.551 763.32 899.467C746.804 881.59 737.546 875.254 713.389 871.398C727.013 885.581 733.968 902.131 738.721 920.934L837.601 921.001Z"/>
	<path fill="#FAFAFA" d="M549.651 849.037C593.303 848.196 638.937 845.784 681.683 855.166C681.815 855.258 681.946 855.353 682.081 855.442C687.163 858.829 693.529 860.174 698.824 863.322C719.441 875.578 730.264 895.092 735.159 917.978Q735.76 920.793 736.328 923.614C725.977 899.758 717.826 877.704 694.247 864.073C699.599 870 705.807 875.09 711.068 881.043C719.064 890.092 731.804 909.944 731.052 922.292C731.01 922.986 730.912 923.668 730.8 924.353L729.693 925.079C721.708 920.905 718.941 905.253 715.057 897.587C711.874 891.305 699.048 870.15 692.183 868.603L691.932 870.131L691.442 868.62L689.64 869.694C691.371 874.294 699.052 878.208 702.431 882.191C707.573 888.251 724.38 916.983 721.905 923.8L719.695 924.764C715.104 922.783 705.658 899.507 702.088 893.784C695.577 883.346 687.456 875.795 677.727 868.402L678.261 869.212C683.451 876.922 691.054 882.929 697.056 890C701.585 895.335 712.494 913.316 711.358 920.524C711.285 920.989 711.23 921.131 711.107 921.544C709.341 922.422 709.253 922.487 707.375 921.876C691.663 916.765 687.208 885.311 664.942 877.99C666.125 880.927 674.784 886.094 677.572 888.957C685.392 896.989 691.488 906.912 696.903 916.672C682.219 910.114 668.903 901.374 655.32 892.845C647.895 896.377 640.483 899.746 632.832 902.763C620.033 907.156 607.095 911.276 594.375 915.879C582.671 918.603 570.962 922.617 559.396 925.958C557.526 900.45 552.679 874.513 549.651 849.037Z"/>
</svg>
